Coordinates
version=1
nRows=7
nColumns=40
inDegrees=yes

Units are S.I. units (second, meters, Newtons, ...)
Angles are in degrees.

endheader
time	pelvis_tilt	pelvis_list	pelvis_rotation	pelvis_tx	pelvis_ty	pelvis_tz	hip_flexion_r	hip_adduction_r	hip_rotation_r	knee_angle_r	knee_angle_r_beta	ankle_angle_r	subtalar_angle_r	mtp_angle_r	hip_flexion_l	hip_adduction_l	hip_rotation_l	knee_angle_l	knee_angle_l_beta	ankle_angle_l	subtalar_angle_l	mtp_angle_l	lumbar_extension	lumbar_bending	lumbar_rotation	arm_flex_r	arm_add_r	arm_rot_r	elbow_flex_r	pro_sup_r	wrist_flex_r	wrist_dev_r	arm_flex_l	arm_add_l	arm_rot_l	elbow_flex_l	pro_sup_l	wrist_flex_l	wrist_dev_l
      0.45000000	     -2.85845199	      9.47342458	     -6.14020802	     -0.31550099	      0.95284149	      1.01045711	     12.18065314	    -22.86745597	    -12.64888666	    -59.86638221	     -1.04486548	     -5.94454941	    -17.30164471	     15.24785032	     12.54861154	    -11.62008225	     13.67454996	    -14.19604761	     -0.24776777	      2.48955997	     10.37586479	      3.45521164	      1.06042579	    -11.50956014	      3.49749735	      3.18966853	    -12.78177294	     -6.58555421	     27.39805920	     89.95437384	      0.00000000	      0.00000000	     -0.23326716	      9.11971360	      9.22645944	     15.13637341	     89.95437384	      0.00000000	      0.00000000
      0.46000000	     -2.94879176	      9.14245225	     -6.23960138	     -0.30662374	      0.95379583	      1.00958592	     13.81957042	    -22.18888512	    -12.03631763	    -60.28062686	     -1.05209541	     -4.85777424	    -17.60835578	     15.11748978	     11.64453622	    -11.41570827	     13.96114570	    -13.51335588	     -0.23585255	      2.72935269	      9.90981923	      3.31253826	      0.98235845	    -11.05809289	      3.15482177	      2.95408546	    -12.70961352	     -6.10989865	     26.99242216	     89.95437384	      0.00000000	      0.00000000	      0.72066970	      9.14288462	      9.14149027	     16.12182880	     89.95437384	      0.00000000	      0.00000000
      0.47000000	     -3.03765533	      8.78452006	     -6.20824763	     -0.29773961	      0.95470301	      1.00850861	     15.32341574	    -21.55368235	    -11.74074303	    -60.44746855	     -1.05500735	     -3.72366333	    -17.69014522	     15.09216164	     10.76261897	    -11.19077429	     14.19089665	    -12.90939712	     -0.22531148	      2.89904878	      9.34519151	      3.13726585	      0.88520477	    -10.56242330	      2.71461515	      2.68139562	    -12.66762011	     -5.64507648	     26.63178447	     89.95437384	      0.00000000	      0.00000000	      1.74409320	      9.16668827	      9.13155815	     17.05503361	     89.95437384	      0.00000000	      0.00000000
      0.48000000	     -3.15977464	      8.45163922	     -5.95376776	     -0.28881058	      0.95548464	      1.00714109	     16.71751234	    -21.04603781	    -11.85053631	    -60.35657517	     -1.05342096	     -3.01221791	    -17.71640511	     14.89909541	     10.00992457	    -11.01197029	     14.35661384	    -12.51184183	     -0.21837284	      3.15068767	      9.00570544	      3.01246454	      0.78971724	    -10.10910695	      2.11077757	      2.31240395	    -12.61907499	     -5.40179672	     26.37748953	     89.95437384	      0.00000000	      0.00000000	      2.78438157	      9.24282395	      9.03135208	     17.90237683	     89.95437384	      0.00000000	      0.00000000
      0.49000000	     -3.31601961	      8.07604261	     -5.71247578	     -0.27983800	      0.95609425	      1.00586687	     18.06203278	    -20.43534256	    -11.95779879	    -60.01502862	     -1.04745985	     -2.09952801	    -17.77580014	     14.71879025	      9.21130783	    -10.79345493	     14.35162407	    -11.96219879	     -0.20877975	      3.40513680	      8.54864845	      2.87377664	      0.77580304	     -9.58710336	      1.49599373	      1.97860211	    -12.56520551	     -5.12534602	     26.07450745	     89.95437384	      0.00000000	      0.00000000	      3.76301911	      9.32408963	      8.85548575	     18.83071587	     89.95437384	      0.00000000	      0.00000000
      0.50000000	     -3.00380272	      7.36243523	     -5.17986821	     -0.27091170	      0.95743086	      1.00467742	     18.47147918	    -19.49898210	    -12.54442723	    -59.21396423	     -1.03347864	     -0.72778155	    -17.71881205	     15.51086502	      7.86453284	    -10.24515350	     13.79608098	    -11.45830749	     -0.19998519	      3.56325939	      7.57613862	      2.33305363	      0.09421226	     -8.80410108	      0.46118682	      1.78086694	    -12.59796488	     -4.43691716	     25.79603882	     89.95437384	      0.00000000	      0.00000000	      4.58357544	      9.59212326	      8.14263584	     20.29873567	     89.95437384	      0.00000000	      0.00000000
      0.51000000	     -2.95415761	      6.84239164	     -4.68749047	     -0.26183645	      0.95813881	      1.00341910	     19.28718218	    -18.86806319	    -13.21574501	    -58.33723683	     -1.01817686	      0.01547377	    -17.67194001	     16.35621721	      6.91805870	     -9.84911015	     13.55111272	    -11.12671243	     -0.19419777	      3.78090026	      6.91127737	      1.66731641	     -0.19168146	     -8.17347892	     -0.36300872	      1.38563665	    -12.55397660	     -4.27167888	     25.62076868	     89.95437384	      0.00000000	      0.00000000	      5.45128540	      9.84849334	      7.37960399	     21.46959677	     89.95437384	      0.00000000	      0.00000000
